<svg width="26" height="27" viewBox="0 0 26 27" fill="none" xmlns="http://www.w3.org/2000/svg">
<path d="M21.3209 8.12292C21.2202 8.12292 21.1346 8.10278 21.0641 8.0625C20.9936 8.02222 20.9382 7.95174 20.898 7.85104L20.0219 5.79688L17.8167 4.83021C17.716 4.78993 17.6455 4.73455 17.6052 4.66406C17.565 4.59358 17.5448 4.50799 17.5448 4.40729C17.5448 4.3066 17.565 4.22101 17.6052 4.15052C17.6455 4.08004 17.716 4.02465 17.8167 3.98438L20.0219 3.04792L20.898 1.08438C20.9382 0.983681 20.9936 0.913194 21.0641 0.872917C21.1346 0.832639 21.2202 0.8125 21.3209 0.8125C21.4216 0.8125 21.5072 0.832639 21.5776 0.872917C21.6481 0.913194 21.7035 0.983681 21.7438 1.08438L22.6198 3.04792L24.825 3.98438C24.9257 4.02465 24.9962 4.08004 25.0365 4.15052C25.0768 4.22101 25.0969 4.3066 25.0969 4.40729C25.0969 4.50799 25.0768 4.59358 25.0365 4.66406C24.9962 4.73455 24.9257 4.78993 24.825 4.83021L22.6198 5.79688L21.7438 7.85104C21.7035 7.95174 21.6481 8.02222 21.5776 8.0625C21.5072 8.10278 21.4216 8.12292 21.3209 8.12292ZM21.3209 26.1271C21.2403 26.1271 21.1598 26.1069 21.0792 26.0667C20.9986 26.0264 20.9382 25.9559 20.898 25.8552L20.0219 23.8917L17.8469 22.9552C17.7462 22.9149 17.6757 22.8596 17.6355 22.7891C17.5952 22.7186 17.575 22.633 17.575 22.5323C17.575 22.4316 17.5952 22.346 17.6355 22.2755C17.6757 22.205 17.7462 22.1497 17.8469 22.1094L20.0219 21.1729L20.898 19.0885C20.9382 18.9879 20.9936 18.9174 21.0641 18.8771C21.1346 18.8368 21.2202 18.8167 21.3209 18.8167C21.4216 18.8167 21.5072 18.8368 21.5776 18.8771C21.6481 18.9174 21.7035 18.9879 21.7438 19.0885L22.6198 21.1729L24.7948 22.1094C24.8955 22.1497 24.966 22.205 25.0063 22.2755C25.0466 22.346 25.0667 22.4316 25.0667 22.5323C25.0667 22.633 25.0466 22.7186 25.0063 22.7891C24.966 22.8596 24.8955 22.9149 24.7948 22.9552L22.6198 23.8917L21.7438 25.8552C21.7035 25.9559 21.6431 26.0264 21.5625 26.0667C21.482 26.1069 21.4014 26.1271 21.3209 26.1271ZM8.05941 20.901C7.8983 20.901 7.74222 20.8557 7.59118 20.7651C7.44014 20.6745 7.32434 20.5486 7.24379 20.3875L5.28025 16.1885L1.05108 14.2854C0.889967 14.2049 0.764099 14.0891 0.673474 13.938C0.582849 13.787 0.537537 13.6309 0.537537 13.4698C0.537537 13.3087 0.582849 13.1526 0.673474 13.0016C0.764099 12.8505 0.889967 12.7347 1.05108 12.6542L5.28025 10.751L7.24379 6.58229C7.32434 6.40104 7.44014 6.26511 7.59118 6.17448C7.74222 6.08386 7.8983 6.03854 8.05941 6.03854C8.22052 6.03854 8.3766 6.08386 8.52764 6.17448C8.67868 6.26511 8.79448 6.39097 8.87504 6.55208L10.8688 10.751L15.0677 12.6542C15.249 12.7347 15.3849 12.8505 15.4756 13.0016C15.5662 13.1526 15.6115 13.3087 15.6115 13.4698C15.6115 13.6309 15.5662 13.787 15.4756 13.938C15.3849 14.0891 15.249 14.2049 15.0677 14.2854L10.8688 16.1885L8.87504 20.3875C8.79448 20.5688 8.67868 20.6997 8.52764 20.7802C8.3766 20.8608 8.22052 20.901 8.05941 20.901Z" fill="#7D84D1"/>
</svg>
