<svg width="32" height="26" viewBox="0 0 32 26" fill="none" xmlns="http://www.w3.org/2000/svg">
<path d="M30.6383 0H1.3617C0.609362 0 0 0.606691 0 1.35573V24.4032C0 24.776 0.306383 25.0811 0.680851 25.0811H4.08511C4.45957 25.0811 4.76596 24.776 4.76596 24.4032V14.9131H17.0213V16.9467C17.0213 17.6957 17.6306 18.3024 18.383 18.3024H27.234V24.4032C27.234 24.776 27.5404 25.0811 27.9149 25.0811H31.3191C31.6936 25.0811 32 24.776 32 24.4032V1.35573C32 0.606691 31.3906 0 30.6383 0ZM1.3617 1.35573H30.6383V3.38934H1.3617V1.35573ZM27.234 10.168H18.383V4.74507H27.234V10.168ZM3.40426 23.7253H1.3617V4.74507H3.40426V23.7253ZM4.76596 13.5573V4.74507H17.0213V13.5573H4.76596ZM18.383 16.9467V11.5237H27.234V16.9467H18.383ZM30.6383 23.7253H28.5957V4.74507H30.6383V23.7253Z" fill="white"/>
</svg>
